<?xml version="1.0" encoding="utf-8"?>
<!-- Generator: Adobe Illustrator 18.0.0, SVG Export Plug-In . SVG Version: 6.00 Build 0)  -->
<!DOCTYPE svg PUBLIC "-//W3C//DTD SVG 1.1//EN" "http://www.w3.org/Graphics/SVG/1.1/DTD/svg11.dtd">
<svg version="1.1" id="Слой_1" xmlns="http://www.w3.org/2000/svg" xmlns:xlink="http://www.w3.org/1999/xlink" x="0px" y="0px"
	 viewBox="0 0 123.1 135.5" enable-background="new 0 0 123.1 135.5" xml:space="preserve">
<g>
	<path fill-rule="evenodd" clip-rule="evenodd" fill="#7D3DAF" d="M120.1,82.4c4-18.5,4-37.2,0-55.6c-2.4-9.5-14.8-21.4-24.6-23.6
		C73-1.1,50.2-1.1,27.7,3.2C17.8,5.4,5.4,17.3,3,26.8C-1,45.3-1,64,3,82.4C5.4,92,17.8,103.8,27.7,106h0c0.4,0.1,0.8,0.5,0.8,0.9
		V134c0,1.4,1.6,2,2.6,1l12.8-13.2l12.1-12.4c0.2-0.2,0.4-0.3,0.7-0.3c13,0.4,26-0.7,38.8-3.1C105.3,103.8,117.7,92,120.1,82.4z"/>
	<g>
		<g>
			<path fill-rule="evenodd" clip-rule="evenodd" fill="#FFFFFF" d="M83,94.9c-1.5-0.5-3-0.8-4.3-1.3C64.8,87.8,52,80.4,41.9,69
				c-5.8-6.5-10.3-13.8-14.1-21.5c-1.8-3.7-3.3-7.5-4.9-11.3c-1.4-3.4,0.7-7,2.9-9.6c2.1-2.4,4.7-4.3,7.6-5.7
				c2.2-1.1,4.4-0.5,6.1,1.4c3.5,4.1,6.8,8.4,9.4,13.2c1.6,2.9,1.2,6.5-1.8,8.5c-0.7,0.5-1.4,1-2,1.6c-0.6,0.5-1.1,1-1.5,1.6
				c-0.7,1.2-0.8,2.6-0.3,3.9C46.9,61,53,68.8,63,72.9c1.6,0.7,3.2,1.4,5.1,1.2c3.1-0.4,4.1-3.7,6.2-5.5c2.1-1.7,4.8-1.8,7.1-0.3
				s4.5,3,6.7,4.6c2.2,1.5,4.3,3,6.3,4.8c1.9,1.7,2.6,3.9,1.5,6.2c-2,4.2-4.8,7.7-9,9.9C85.7,94.3,84.3,94.5,83,94.9
				c-0.3-0.1-0.5-0.2-0.5-0.2C82.6,94.5,84,94.6,83,94.9z"/>
			<path fill-rule="evenodd" clip-rule="evenodd" fill="#FFFFFF" d="M61.6,16.2c18.1,0.5,33.1,12.5,36.3,30.5c0.5,3.1,0.7,6.2,1,9.3
				c0.1,1.3-0.6,2.5-2,2.6c-1.5,0-2.1-1.2-2.2-2.5c-0.2-2.6-0.3-5.2-0.7-7.7C92,34.8,81.3,23.6,67.8,21.2c-2-0.4-4.1-0.5-6.1-0.7
				c-1.3-0.1-3-0.2-3.3-1.8c-0.2-1.4,0.9-2.4,2.2-2.5C60.9,16.2,61.3,16.2,61.6,16.2c6,0.2,8,0.2,8,0.2S61.4,16.2,61.6,16.2z"/>
			<path fill-rule="evenodd" clip-rule="evenodd" fill="#FFFFFF" d="M89.2,51.9c0,0.2,0,0.8-0.2,1.3c-0.5,1.8-3.2,2.1-3.9,0.2
				c-0.2-0.6-0.2-1.2-0.2-1.8c0-3.8-0.8-7.7-2.8-11c-2-3.4-5-6.3-8.6-8.1c-2.2-1.1-4.5-1.7-6.9-2.1c-1-0.2-2.1-0.3-3.1-0.4
				c-1.3-0.2-1.9-1-1.9-2.2c0.1-1.2,0.9-2,2.2-1.9C68,26.1,72,27,75.7,29c7.5,4,11.8,10.3,13.1,18.7c0.1,0.4,0.2,0.8,0.2,1.1
				C89.1,49.7,89.1,50.7,89.2,51.9c0,0.2,0-0.5,0-0.5C89.2,51.4,89.2,51.5,89.2,51.9z"/>
			<path fill-rule="evenodd" clip-rule="evenodd" fill="#FFFFFF" d="M77.9,51.5c-1.5,0-2.3-0.8-2.5-2.2c-0.1-1-0.2-1.9-0.4-2.9
				c-0.5-1.9-1.4-3.6-3-4.7c-0.7-0.5-1.6-0.9-2.4-1.2c-1.1-0.3-2.3-0.2-3.4-0.5c-1.2-0.3-1.9-1.3-1.7-2.4c0.2-1,1.2-1.8,2.3-1.8
				c7,0.5,12.1,4.1,12.8,12.4c0,0.6,0.1,1.2,0,1.8C79.3,51,78.6,51.4,77.9,51.5c-0.4,0-0.5,0-0.5,0C77.4,51.5,78.4,51.5,77.9,51.5z"
				/>
		</g>
	</g>
</g>
</svg>
