<svg xmlns="http://www.w3.org/2000/svg" width="225.167" height="62.167"><path fill="#E5E5E5" d="m28.405 31.14-6.243-6.245 6.244-6.243 6.242 6.244z"/><path fill="#C6C6C5" d="m36.26 38.99-6.244-6.242 6.243-6.243 6.242 6.243zm-15.61-.094-6.244-6.243 6.243-6.243 6.242 6.243zm7.85 7.849L22.26 40.5l6.244-6.244 6.244 6.245zM63.764 12.607v1.106h-6.192V29.72h-2.875V13.714h-6.204v-1.106h15.27zm4.644 6.328c.794-.893 1.622-1.563 2.48-2.01.86-.445 1.737-.668 2.63-.668.458 0 .89.104 1.296.312.406.208.757.493 1.056.853.3.36.536.785.708 1.272.172.488.258 1.006.258 1.555v9.472H74.22v-9.03c0-.868-.196-1.527-.59-1.977-.392-.45-.9-.676-1.522-.676-.278 0-.574.043-.885.134-.31.09-.626.22-.945.387-.32.17-.637.37-.952.604-.316.233-.62.493-.915.78v9.78h-2.616V10.52l1.867-.75h.75v9.165h-.002zm17.347 11.067a6.28 6.28 0 0 1-2.512-.503 6.625 6.625 0 0 1-2.052-1.37 6.497 6.497 0 0 1-1.387-2.027 6.119 6.119 0 0 1-.51-2.49c0-1.054.155-2.032.468-2.934.312-.903.75-1.68 1.316-2.336a5.929 5.929 0 0 1 2.046-1.535c.798-.37 1.684-.554 2.66-.554.867 0 1.662.152 2.383.455.72.304 1.338.71 1.855 1.223a5.546 5.546 0 0 1 1.204 1.776c.286.67.43 1.375.43 2.112h-9.84c0 .885.115 1.706.345 2.462.228.757.547 1.41.958 1.96.41.547.9.977 1.474 1.29.573.31 1.2.466 1.88.466.573 0 1.12-.09 1.645-.276a5.775 5.775 0 0 0 1.423-.724c.425-.3.788-.642 1.087-1.03.3-.39.51-.79.633-1.198l.75.33a6.104 6.104 0 0 1-.915 1.91 7.393 7.393 0 0 1-1.475 1.556 7.11 7.11 0 0 1-1.843 1.05 5.62 5.62 0 0 1-2.022.384zm2.617-9.238c0-.5-.087-.964-.264-1.394s-.417-.802-.726-1.118a3.381 3.381 0 0 0-1.08-.745c-.414-.18-.86-.27-1.334-.27-.393 0-.772.09-1.135.27-.364.18-.69.425-.97.738-.283.31-.518.682-.7 1.112-.185.43-.298.896-.338 1.395l6.547.012zm16.708.456c0 1.203.18 2.28.54 3.23.36.95.855 1.754 1.486 2.413a6.351 6.351 0 0 0 2.242 1.513c.863.348 1.8.522 2.808.522.598 0 1.176-.117 1.73-.35a6.784 6.784 0 0 0 1.556-.91c.48-.373.908-.795 1.286-1.266.374-.47.688-.948.933-1.43l1.203.774a11.65 11.65 0 0 1-1.245 1.66c-.48.53-1.034 1-1.666 1.405a8.707 8.707 0 0 1-2.136.977c-.793.245-1.684.37-2.667.37-.942 0-1.833-.11-2.668-.326a9.746 9.746 0 0 1-2.303-.91 8.581 8.581 0 0 1-3.282-3.217 8.875 8.875 0 0 1-1.185-4.455 8.911 8.911 0 0 1 1.21-4.478 8.876 8.876 0 0 1 3.34-3.268 9.892 9.892 0 0 1 2.33-.927c.84-.222 1.744-.332 2.702-.332.91 0 1.745.123 2.51.368a8.986 8.986 0 0 1 2.103.978 8.559 8.559 0 0 1 1.69 1.407c.49.532.91 1.085 1.263 1.657l-1.24.835c-.72-1.383-1.522-2.4-2.408-3.046-.884-.645-1.898-.97-3.046-.97-.99 0-1.916.18-2.775.54-.86.36-1.61.878-2.248 1.55-.64.67-1.143 1.485-1.51 2.443-.37.96-.552 2.043-.552 3.246zm16.732-4.694h2.604v2.495c.254-.368.528-.72.823-1.058.294-.334.602-.63.92-.884.32-.253.648-.454.99-.6.34-.148.686-.222 1.036-.222.287 0 .554.042.8.13.246.083.46.198.645.343.187.142.33.31.438.502.105.194.158.396.158.61 0 .425-.133.746-.398.963-.268.217-.637.326-1.113.326-.295 0-.53-.03-.705-.09a3.135 3.135 0 0 1-.48-.21 5.107 5.107 0 0 0-.437-.207 1.423 1.423 0 0 0-.552-.09c-.17 0-.346.05-.522.152a2.387 2.387 0 0 0-.526.43c-.178.185-.355.4-.534.65-.18.25-.36.523-.54.817v9.14h-2.605V16.526zm16.23 13.476a7.32 7.32 0 0 1-2.795-.526 6.86 6.86 0 0 1-2.212-1.438 6.516 6.516 0 0 1-1.45-2.13 6.544 6.544 0 0 1-.52-2.61c0-.976.172-1.892.52-2.748.35-.855.83-1.6 1.45-2.235s1.355-1.136 2.212-1.504c.855-.37 1.788-.553 2.795-.553 1.006 0 1.935.168 2.782.504a6.897 6.897 0 0 1 2.205 1.382 6.302 6.302 0 0 1 1.455 2.065c.35.792.52 1.635.52 2.537 0 1-.172 1.94-.52 2.82a7.2 7.2 0 0 1-1.456 2.31 6.885 6.885 0 0 1-2.206 1.56c-.848.378-1.777.568-2.782.568zm.49-.97c.518 0 .99-.132 1.42-.4.43-.263.802-.62 1.117-1.068.313-.446.56-.967.73-1.566.172-.6.257-1.23.257-1.894 0-.958-.082-1.852-.246-2.683-.162-.83-.43-1.558-.798-2.18a4.15 4.15 0 0 0-1.437-1.467c-.59-.356-1.314-.534-2.176-.534-.443 0-.868.126-1.28.38a3.79 3.79 0 0 0-1.086 1.044c-.315.442-.567.96-.755 1.547a6.102 6.102 0 0 0-.284 1.88c0 .96.104 1.86.307 2.703.205.845.5 1.578.886 2.206.384.626.857 1.123 1.424 1.485a3.464 3.464 0 0 0 1.918.548zm13.208.063c.358 0 .69-.055.995-.166.303-.11.562-.257.78-.438.216-.18.386-.39.51-.625.122-.24.185-.48.185-.726 0-.4-.102-.75-.302-1.05s-.467-.57-.8-.81c-.332-.24-.71-.46-1.137-.656-.423-.196-.854-.4-1.294-.61-.44-.207-.872-.432-1.297-.675a5.847 5.847 0 0 1-1.138-.836c-.332-.314-.598-.68-.8-1.094s-.3-.902-.3-1.467c0-.532.11-1.023.336-1.473.226-.45.537-.84.934-1.167a4.418 4.418 0 0 1 1.426-.768 5.65 5.65 0 0 1 1.813-.277c.434 0 .844.03 1.23.09.385.063.758.182 1.125.358.36.176.728.422 1.09.745.366.318.746.74 1.138 1.252l-.958.86c-.5-.82-1.06-1.43-1.68-1.83a3.57 3.57 0 0 0-1.983-.604c-.366 0-.708.048-1.02.142-.31.094-.577.22-.798.38-.222.16-.394.347-.518.56a1.322 1.322 0 0 0-.183.675c0 .393.108.738.33 1.032.22.294.513.562.872.798.36.24.77.458 1.23.658s.927.405 1.41.614c.484.208.955.432 1.414.67.457.237.866.514 1.228.83.358.314.65.68.87 1.092.223.413.333.895.333 1.443a3.97 3.97 0 0 1-.31 1.568c-.21.487-.525.91-.94 1.265-.42.357-.946.636-1.58.843-.634.203-1.373.305-2.217.305-.386 0-.78-.03-1.187-.09-.406-.062-.814-.182-1.23-.357s-.826-.423-1.24-.743a6.703 6.703 0 0 1-1.21-1.254l1.068-.97c.32.45.63.833.923 1.148.292.315.59.574.89.773.3.202.61.35.934.443.332.093.682.142 1.06.142zm11.905 0c.36 0 .69-.055.995-.166.304-.11.564-.257.78-.438.215-.18.387-.39.51-.625.123-.24.186-.48.186-.726 0-.4-.1-.75-.302-1.05a3.23 3.23 0 0 0-.8-.81c-.332-.24-.71-.46-1.137-.656-.424-.196-.856-.4-1.296-.61-.437-.207-.87-.432-1.295-.675a5.9 5.9 0 0 1-1.137-.836 3.759 3.759 0 0 1-.798-1.094c-.2-.413-.304-.902-.304-1.467 0-.532.113-1.023.338-1.473.227-.45.537-.84.935-1.167.395-.328.87-.583 1.424-.768a5.657 5.657 0 0 1 1.812-.277c.435 0 .845.03 1.23.09.384.063.76.182 1.123.358s.728.422 1.092.745c.365.318.744.74 1.137 1.252l-.96.86c-.5-.82-1.06-1.43-1.678-1.83a3.576 3.576 0 0 0-1.983-.604c-.37 0-.71.048-1.022.142-.31.094-.578.22-.8.38a1.85 1.85 0 0 0-.517.56c-.12.212-.183.437-.183.675 0 .393.11.738.33 1.032.224.294.514.562.873.798.36.24.77.458 1.228.658l1.413.614c.485.208.957.432 1.415.67.458.237.867.514 1.23.83.358.314.648.68.87 1.092.22.413.332.895.332 1.443 0 .558-.104 1.08-.313 1.568-.207.487-.52.91-.938 1.265-.42.357-.945.636-1.578.843-.635.203-1.376.305-2.22.305-.384 0-.78-.03-1.187-.09a5.228 5.228 0 0 1-1.228-.357 5.63 5.63 0 0 1-1.24-.743 6.798 6.798 0 0 1-1.21-1.254l1.07-.97c.32.45.626.833.92 1.148.295.315.59.574.893.773.298.202.606.35.933.443.33.093.678.142 1.057.142zm8.905-12.569 4.18 9.632 4.15-9.632 4.166 9.632 3.698-9.632h1.253l-5.38 13.342h-.9l-3.684-8.635-3.71 8.635h-.823l-5.773-13.342h2.824zm25.236 13.476a7.328 7.328 0 0 1-2.795-.526 6.873 6.873 0 0 1-2.21-1.438 6.516 6.516 0 0 1-1.45-2.13 6.545 6.545 0 0 1-.522-2.61c0-.976.173-1.892.523-2.748.35-.855.83-1.6 1.45-2.235a6.808 6.808 0 0 1 2.21-1.504c.857-.37 1.79-.553 2.796-.553 1.008 0 1.936.168 2.784.504a6.892 6.892 0 0 1 2.204 1.382 6.307 6.307 0 0 1 1.457 2.065c.35.792.522 1.635.522 2.537 0 1-.174 1.94-.52 2.82a7.24 7.24 0 0 1-1.458 2.31 6.855 6.855 0 0 1-2.204 1.56c-.85.378-1.777.568-2.784.568zm.492-.97c.516 0 .99-.132 1.418-.4.43-.263.803-.62 1.118-1.068a5.13 5.13 0 0 0 .73-1.566c.174-.6.258-1.23.258-1.894 0-.958-.08-1.852-.246-2.683-.163-.83-.43-1.558-.798-2.18a4.178 4.178 0 0 0-1.438-1.467c-.59-.356-1.315-.534-2.175-.534-.442 0-.87.126-1.278.38-.41.253-.772.602-1.09 1.044-.312.442-.564.96-.753 1.547a6.162 6.162 0 0 0-.282 1.88c0 .96.103 1.86.307 2.703.203.845.498 1.578.884 2.206.385.626.86 1.123 1.426 1.485a3.462 3.462 0 0 0 1.918.548zM54.787 34.748h2.875v16.008h8.61v1.105H54.788V34.75zM78.276 51.86h-2.628v-1.804c-.31.238-.616.48-.915.725a7.31 7.31 0 0 1-.97.675 5.1 5.1 0 0 1-1.154.5c-.424.127-.912.19-1.47.19-.516 0-.982-.084-1.4-.25a3.173 3.173 0 0 1-1.068-.694 2.95 2.95 0 0 1-.676-1.042 3.572 3.572 0 0 1-.233-1.305 3.4 3.4 0 0 1 .337-1.526 4.2 4.2 0 0 1 .922-1.225 6.632 6.632 0 0 1 1.362-.957 14 14 0 0 1 1.652-.75c.582-.22 1.182-.417 1.8-.59.62-.17 1.222-.33 1.812-.476v-.83c0-.597-.06-1.103-.18-1.518-.117-.413-.288-.747-.51-1a1.856 1.856 0 0 0-.802-.548 3.22 3.22 0 0 0-1.064-.166c-.442 0-.802.058-1.08.172-.28.115-.5.266-.658.456a1.52 1.52 0 0 0-.325.644c-.06.243-.087.484-.087.73 0 .23-.02.452-.055.664-.038.213-.105.4-.204.56-.098.16-.23.288-.4.387-.166.1-.382.148-.644.148-.205 0-.39-.04-.56-.117a1.38 1.38 0 0 1-.435-.324 1.45 1.45 0 0 1-.282-.49 1.885 1.885 0 0 1-.098-.616c0-.434.143-.84.43-1.216.286-.376.67-.702 1.155-.976a6.735 6.735 0 0 1 1.695-.65 8.464 8.464 0 0 1 2.04-.24c.867 0 1.6.08 2.2.25.596.168 1.08.405 1.45.706.37.303.633.673.797 1.106.164.435.246.912.246 1.438v9.962h-.002zm-2.63-7.69a23.24 23.24 0 0 0-1.172.42 12.712 12.712 0 0 0-2.302 1.146 6.253 6.253 0 0 0-.93.72 3.334 3.334 0 0 0-.633.81 1.847 1.847 0 0 0-.233.897c0 .32.06.625.177.915.12.29.277.546.473.76.196.218.424.392.682.52.258.127.525.19.804.19.296 0 .576-.04.84-.12.267-.077.525-.18.775-.31.248-.132.5-.284.747-.462.25-.176.505-.364.77-.56V44.17zm7.546-5.503 4.176 9.63 4.152-9.63 4.165 9.63 3.698-9.63h1.253l-5.38 13.342h-.896l-3.685-8.637-3.71 8.636h-.824l-5.773-13.343h2.825zm32.028 13.477c-.86 0-1.67-.17-2.428-.51a6.239 6.239 0 0 1-1.978-1.394 6.563 6.563 0 0 1-1.327-2.077 6.64 6.64 0 0 1-.486-2.543 7.398 7.398 0 0 1 2.004-5.111 6.939 6.939 0 0 1 2.173-1.547 6.345 6.345 0 0 1 2.667-.566c.738 0 1.417.08 2.04.24.622.16 1.158.38 1.61.662.45.283.8.617 1.055 1 .255.386.382.8.382 1.243a1.1 1.1 0 0 1-.155.56c-.1.176-.235.33-.398.46a1.9 1.9 0 0 1-.56.313c-.21.078-.42.116-.635.116-.237 0-.45-.04-.638-.13a1.583 1.583 0 0 1-.483-.33 1.336 1.336 0 0 1-.308-.464 1.37 1.37 0 0 1-.105-.525c0-.305-.03-.586-.097-.855a1.635 1.635 0 0 0-.346-.688 1.634 1.634 0 0 0-.675-.455c-.287-.11-.65-.165-1.094-.165-.597 0-1.132.12-1.61.36a3.622 3.622 0 0 0-1.2.978c-.33.41-.58.89-.75 1.444-.173.55-.26 1.14-.26 1.762 0 .843.11 1.643.333 2.396.222.754.53 1.413.933 1.977a4.698 4.698 0 0 0 1.45 1.347 3.664 3.664 0 0 0 1.893.498c.615 0 1.148-.096 1.598-.29a3.81 3.81 0 0 0 1.175-.778c.33-.328.615-.71.853-1.144.24-.434.45-.893.64-1.376l.785.318a9.306 9.306 0 0 1-.896 2.224 6.51 6.51 0 0 1-1.333 1.66 5.466 5.466 0 0 1-1.734 1.03 5.966 5.966 0 0 1-2.097.358zm15.44 0c-1.006 0-1.94-.177-2.793-.528a6.792 6.792 0 0 1-2.21-1.438 6.537 6.537 0 0 1-1.452-2.13 6.542 6.542 0 0 1-.522-2.61c0-.975.174-1.892.522-2.746a6.924 6.924 0 0 1 1.45-2.236c.62-.634 1.355-1.136 2.212-1.504s1.788-.554 2.794-.554c1.008 0 1.936.17 2.784.506.85.334 1.583.796 2.205 1.38a6.304 6.304 0 0 1 1.456 2.065c.348.79.52 1.633.52 2.536 0 1-.173 1.94-.52 2.818-.35.88-.834 1.65-1.457 2.31a6.88 6.88 0 0 1-2.206 1.562 6.799 6.799 0 0 1-2.783.568zm.493-.97c.518 0 .99-.135 1.42-.402.43-.264.8-.62 1.118-1.067.314-.446.56-.968.732-1.567.172-.598.256-1.23.256-1.894 0-.956-.082-1.852-.246-2.682-.163-.833-.43-1.56-.798-2.182s-.848-1.11-1.437-1.47c-.59-.353-1.315-.53-2.176-.53-.442 0-.867.127-1.277.38s-.772.603-1.088 1.044a5.648 5.648 0 0 0-.755 1.548 6.162 6.162 0 0 0-.282 1.88c0 .96.103 1.86.307 2.702.203.845.5 1.578.885 2.207.386.626.86 1.123 1.425 1.484.566.37 1.205.55 1.918.55zm8.993-12.507h2.617v2.406c.794-.893 1.624-1.562 2.48-2.01.86-.444 1.74-.67 2.63-.67.46 0 .892.105 1.296.313.406.21.756.495 1.056.855s.536.786.713 1.274a4.53 4.53 0 0 1 .264 1.555v9.47h-2.63v-9.03c0-.87-.197-1.528-.59-1.98-.393-.448-.895-.673-1.51-.673-.278 0-.575.042-.886.133s-.625.22-.946.387a8.119 8.119 0 0 0-1.878 1.382v9.78h-2.618V38.666zm22.321 0v1.105h-3.525V51.86h-2.63V39.773h-2.762v-1.105h2.762v-1.55c0-.72.13-1.397.388-2.03a5.303 5.303 0 0 1 1.05-1.66c.443-.47.964-.842 1.562-1.11a4.571 4.571 0 0 1 1.914-.407c.582 0 1.104.06 1.555.18.458.12.84.278 1.15.48.312.2.55.437.713.71.163.277.247.57.247.88 0 .195-.037.37-.11.522a1.165 1.165 0 0 1-.297.388c-.12.106-.266.19-.43.246s-.336.086-.517.086c-.318 0-.562-.062-.73-.185a1.253 1.253 0 0 1-.387-.47 3.088 3.088 0 0 1-.216-.607c-.055-.218-.13-.418-.228-.608s-.24-.345-.424-.466c-.185-.124-.448-.187-.792-.187-.26 0-.507.077-.73.227a2.086 2.086 0 0 0-.578.597c-.16.246-.285.53-.375.847-.09.322-.136.648-.136.984v3.133h3.527zm4.555-6.757c.207 0 .4.034.584.104.185.068.345.164.48.28.137.12.244.26.324.42.082.16.123.33.123.51 0 .182-.04.35-.123.51s-.19.3-.325.418c-.135.12-.295.212-.48.282a1.62 1.62 0 0 1-.583.104 1.578 1.578 0 0 1-1.05-.386 1.423 1.423 0 0 1-.326-.418 1.12 1.12 0 0 1 0-1.02c.083-.16.193-.3.326-.42a1.621 1.621 0 0 1 1.05-.384zm-1.275 7.237 1.845-.75h.76V51.86h-2.604V39.148zm7.307-.48h2.604v2.494c.253-.368.527-.72.823-1.057.297-.335.603-.632.92-.885.32-.254.65-.455.99-.6.34-.147.688-.223 1.038-.223.286 0 .554.043.8.13.247.084.463.2.644.343.186.146.33.313.437.505.105.193.16.396.16.61 0 .424-.135.745-.4.962-.267.218-.638.326-1.113.326-.295 0-.53-.03-.706-.09-.175-.06-.335-.13-.478-.21s-.29-.146-.438-.207a1.416 1.416 0 0 0-.55-.093c-.174 0-.348.053-.524.153a2.37 2.37 0 0 0-.526.43c-.178.186-.355.4-.534.65-.182.252-.36.523-.54.818v9.14h-2.605V38.667zm10.603 0h2.615v2.47c.337-.37.714-.718 1.137-1.045.42-.328.854-.62 1.302-.873a7.153 7.153 0 0 1 1.346-.602c.45-.146.877-.222 1.276-.222.394 0 .79.07 1.188.21.397.137.766.333 1.104.58.34.25.634.548.88.886.243.34.405.71.478 1.112a4.46 4.46 0 0 1 .9-1.086 6.58 6.58 0 0 1 1.274-.886c.467-.25.958-.45 1.475-.595.514-.146 1.02-.222 1.52-.222s.97.11 1.406.33c.437.223.822.522 1.148.894.328.37.586.808.772 1.312.19.503.285 1.037.285 1.604v9.323h-2.63v-8.943c0-.368-.062-.72-.19-1.05a3.036 3.036 0 0 0-.51-.874 2.508 2.508 0 0 0-.75-.597 1.965 1.965 0 0 0-.91-.22c-.358 0-.726.05-1.1.148a5.255 5.255 0 0 0-1.982 1.005c-.28.23-.5.472-.664.727v9.802h-2.62v-8.943a2.903 2.903 0 0 0-.71-1.924 2.647 2.647 0 0 0-.762-.597 1.97 1.97 0 0 0-.91-.22c-.337 0-.682.053-1.038.153-.356.103-.705.24-1.043.41a6.1 6.1 0 0 0-.948.597c-.29.226-.534.466-.73.72v9.802h-2.617V38.666h.004z"/></svg>